<svg xmlns:xlink="http://www.w3.org/1999/xlink" xmlns="http://www.w3.org/2000/svg" width="121" height="123" viewBox="0 0 121 123" fill="none">
<path d="M0 84.158C0 62.7061 17.3902 45.3159 38.842 45.3159H81.4587C102.911 45.3159 120.301 62.7061 120.301 84.158C120.301 105.61 102.911 123 81.4587 123H38.842C17.3902 123 0 105.61 0 84.158Z" fill="#E3F0F5"/>
<rect x="36.0903" y="64.7368" width="12.0301" height="38.842" rx="6.01504" fill="black"/>
<rect x="36.0903" y="64.7368" width="12.0301" height="38.842" rx="6.01504" fill="black"/>
<rect x="72.1804" y="64.7368" width="12.0301" height="38.842" rx="6.01504" fill="black"/>
<rect x="72.1804" y="64.7368" width="12.0301" height="38.842" rx="6.01504" fill="black"/>
<rect width="12.2658" height="38.1727" rx="6.13291" transform="matrix(0.84938 0.527781 -0.472723 0.881211 87.2158 0)" fill="#E3F0F5"/>
<rect width="12.2658" height="38.1727" rx="6.13291" transform="matrix(0.84938 0.527781 -0.472723 0.881211 87.2158 0)" fill="#E3F0F5"/>
<rect width="12.2658" height="38.1727" rx="6.13291" transform="matrix(0.84938 -0.527781 0.472723 0.881211 21.0505 6.47363)" fill="#E3F0F5"/>
<rect width="12.2658" height="38.1727" rx="6.13291" transform="matrix(0.84938 -0.527781 0.472723 0.881211 21.0505 6.47363)" fill="#E3F0F5"/>
</svg>